<?xml version="1.0" standalone="no"?><svg xmlns="http://www.w3.org/2000/svg" viewBox="0 0 1440 320"><path fill="#ffffff" fill-opacity="1" d="M0,32L18.5,48C36.9,64,74,96,111,101.3C147.7,107,185,85,222,85.3C258.5,85,295,107,332,122.7C369.2,139,406,149,443,170.7C480,192,517,224,554,229.3C590.8,235,628,213,665,197.3C701.5,181,738,171,775,160C812.3,149,849,139,886,138.7C923.1,139,960,149,997,144C1033.8,139,1071,117,1108,133.3C1144.6,149,1182,203,1218,197.3C1255.4,192,1292,128,1329,96C1366.2,64,1403,64,1422,64L1440,64L1440,320L1421.5,320C1403.1,320,1366,320,1329,320C1292.3,320,1255,320,1218,320C1181.5,320,1145,320,1108,320C1070.8,320,1034,320,997,320C960,320,923,320,886,320C849.2,320,812,320,775,320C738.5,320,702,320,665,320C627.7,320,591,320,554,320C516.9,320,480,320,443,320C406.2,320,369,320,332,320C295.4,320,258,320,222,320C184.6,320,148,320,111,320C73.8,320,37,320,18,320L0,320Z"></path></svg>